<svg xmlns="http://www.w3.org/2000/svg" viewBox="0 0 9.49 9.84"><defs><style>.cls-1{fill:#b4b4b3;}</style></defs><title>google</title><g id="Layer_2" data-name="Layer 2"><g id="Capa_1" data-name="Capa 1"><polygon class="cls-1" points="8.3 3.04 7.34 3.04 7.34 4.23 6.16 4.23 6.16 5.18 7.34 5.18 7.34 6.37 8.3 6.37 8.3 5.18 9.49 5.18 9.49 4.23 8.3 4.23 8.3 3.04"/><path class="cls-1" d="M5.05,5.67c-.28-.2-.8-.67-.8-.95s.09-.49.58-.87A2,2,0,0,0,5.7,2.25a1.82,1.82,0,0,0-1-1.76h1L6.36,0h-3A2.56,2.56,0,0,0,.66,2.23,2.2,2.2,0,0,0,3,4.45h.28A1.24,1.24,0,0,0,3.11,5a1.19,1.19,0,0,0,.42.84H3c-1.69,0-3,1.08-3,2.2S1.43,9.84,3.12,9.84c1.93,0,3-1.09,3-2.2A2.13,2.13,0,0,0,5.05,5.67ZM3.42,4.14A2.06,2.06,0,0,1,1.76,2.23C1.62,1.2,2.15.41,2.93.43A2,2,0,0,1,4.6,2.31C4.73,3.35,4.21,4.16,3.42,4.14ZM3.12,9.36a1.83,1.83,0,0,1-2-1.63c0-.87,1-1.6,2.22-1.59a2.56,2.56,0,0,1,.76.12C4.71,6.7,5.17,7,5.3,7.46a1.35,1.35,0,0,1,0,.31C5.33,8.66,4.76,9.36,3.12,9.36Z"/></g></g></svg>