<svg xmlns="http://www.w3.org/2000/svg" viewBox="0 0 10.79 10.79"><defs><style>.cls-1{fill:#b4b4b3;}</style></defs><title>pinterest</title><g id="Layer_2" data-name="Layer 2"><g id="Capa_1" data-name="Capa 1"><path class="cls-1" d="M5.4,0A5.4,5.4,0,0,0,3.23,10.34,4.74,4.74,0,0,1,3.32,9.1L4,6.16a2.07,2.07,0,0,1-.17-.85c0-.8.46-1.4,1-1.4a.72.72,0,0,1,.73.81,11.62,11.62,0,0,1-.48,1.91.83.83,0,0,0,.85,1C7,7.67,7.7,6.36,7.7,4.8A2,2,0,0,0,5.46,2.74,2.55,2.55,0,0,0,2.8,5.32a1.56,1.56,0,0,0,.36,1.06.26.26,0,0,1,.08.3l-.11.43a.19.19,0,0,1-.27.14A2.08,2.08,0,0,1,1.75,5.19,3.57,3.57,0,0,1,5.6,1.81,3.23,3.23,0,0,1,9,4.91C9,7,7.84,8.6,6.11,8.6a1.55,1.55,0,0,1-1.32-.67s-.31,1.24-.38,1.48a4.5,4.5,0,0,1-.54,1.16A5.4,5.4,0,1,0,5.4,0Z"/></g></g></svg>