<svg xmlns="http://www.w3.org/2000/svg" viewBox="0 0 6.5 10.55"><defs><style>.cls-1{fill:#b4b4b3;}</style></defs><title>tumblr</title><g id="Layer_2" data-name="Layer 2"><g id="Capa_1" data-name="Capa 1"><path class="cls-1" d="M4.91,8.83a1.52,1.52,0,0,1-.8-.21.79.79,0,0,1-.36-.42A4.3,4.3,0,0,1,3.65,7V4.32h2.5V2.67H3.65V0H2.15a4.09,4.09,0,0,1-.37,1.34,2.89,2.89,0,0,1-.71.91A3.11,3.11,0,0,1,0,2.83V4.32H1.17V8a3.11,3.11,0,0,0,.15,1.1,1.88,1.88,0,0,0,.54.72,2.76,2.76,0,0,0,.95.52,4.11,4.11,0,0,0,1.28.18,5.15,5.15,0,0,0,1.19-.13A6.35,6.35,0,0,0,6.5,10V8.31A2.88,2.88,0,0,1,4.91,8.83Z"/></g></g></svg>