<svg xmlns="http://www.w3.org/2000/svg" viewBox="0 0 10.29 8.36"><defs><style>.cls-1{fill:#b4b4b3;}</style></defs><title>twitter</title><g id="Layer_2" data-name="Layer 2"><g id="Capa_1" data-name="Capa 1"><path class="cls-1" d="M10,.15A4.22,4.22,0,0,1,8.67.67a2.11,2.11,0,0,0-3.6,1.93A6,6,0,0,1,.72.39a2.11,2.11,0,0,0,.65,2.82,2.11,2.11,0,0,1-1-.26V3A2.11,2.11,0,0,0,2.11,5a2.06,2.06,0,0,1-.56.07,2.09,2.09,0,0,1-.4,0,2.11,2.11,0,0,0,2,1.47,4.23,4.23,0,0,1-2.62.9,4.24,4.24,0,0,1-.5,0,6,6,0,0,0,3.24.95,6,6,0,0,0,6-6c0-.09,0-.18,0-.27A4.28,4.28,0,0,0,10.29,1a4.22,4.22,0,0,1-1.21.33A2.11,2.11,0,0,0,10,.15Z"/></g></g></svg>