<svg xmlns="http://www.w3.org/2000/svg" viewBox="0 0 48 22.45"><defs><style>.cls-1{fill:none;stroke:#fff;stroke-linecap:round;stroke-linejoin:round;stroke-width:2px;}</style></defs><title>bowtie</title><g id="Layer_2" data-name="Layer 2"><g id="icons"><path class="cls-1" d="M29,15.23A1.82,1.82,0,0,1,27,17H21a1.82,1.82,0,0,1-2-1.77v-8A2.21,2.21,0,0,1,21,5h6a2.21,2.21,0,0,1,2,2.23Z"/><path class="cls-1" d="M28.78,6.31,44.37,1.1A2,2,0,0,1,47,3V19.45a2,2,0,0,1-2.63,1.9L28.78,16.14"/><path class="cls-1" d="M19.23,6.3,3.63,1.1A2,2,0,0,0,1,3V19.45a2,2,0,0,0,2.63,1.9l15.6-5.2"/><line class="cls-1" x1="15" y1="11" x2="19" y2="11"/><line class="cls-1" x1="33" y1="11" x2="29" y2="11"/></g></g></svg>