<svg xmlns="http://www.w3.org/2000/svg" viewBox="0 0 24 24"><defs><style>.cls-1{fill:#58595c;}.cls-2{fill:none;}</style></defs><title>cart</title><g id="Layer_2" data-name="Layer 2"><g id="Layer_1-2" data-name="Layer 1"><path class="cls-1" d="M7,18a2,2,0,1,0,2,2A2,2,0,0,0,7,18ZM1,2V4H3l3.6,7.59L5.25,14A1.93,1.93,0,0,0,5,15a2,2,0,0,0,2,2H19V15H7.42a.25.25,0,0,1-.25-.25l0-.12L8.1,13h7.45a2,2,0,0,0,1.75-1l3.58-6.49A1,1,0,0,0,21,5a1,1,0,0,0-1-1H5.21L4.27,2ZM17,18a2,2,0,1,0,2,2A2,2,0,0,0,17,18Z"/><path class="cls-2" d="M0,0H24V24H0Z"/></g></g></svg>