<svg xmlns="http://www.w3.org/2000/svg" viewBox="0 0 24 24"><defs><style>.cls-1{fill:#6c6b6b;}</style></defs><title>globe</title><g id="Layer_2" data-name="Layer 2"><g id="Layer_1-2" data-name="Layer 1"><path class="cls-1" d="M12,0A12,12,0,1,0,24,12,12,12,0,0,0,12,0ZM22,12a10,10,0,0,1-.2,2H17.94a21.37,21.37,0,0,0,0-4H21.8A10,10,0,0,1,22,12Zm-.84-4h-3.5a16.82,16.82,0,0,0-1.95-5.28A10,10,0,0,1,21.16,8ZM15.61,8H13V2.34A13.22,13.22,0,0,1,15.61,8ZM11,2.34V8H8.4A13.22,13.22,0,0,1,11,2.34ZM11,10v4H8.07a18.32,18.32,0,0,1,0-4Zm0,6v5.66A13.22,13.22,0,0,1,8.4,16Zm2,5.66V16h2.6A13.22,13.22,0,0,1,13,21.66ZM13,14V10h2.93a18.32,18.32,0,0,1,0,4ZM8.29,2.72A16.82,16.82,0,0,0,6.34,8H2.84A10,10,0,0,1,8.29,2.72ZM2.2,10H6.05a21.37,21.37,0,0,0,0,4H2.2a10,10,0,0,1,0-4Zm.64,6h3.5a16.82,16.82,0,0,0,1.95,5.28A10,10,0,0,1,2.84,16Zm12.87,5.28A16.82,16.82,0,0,0,17.66,16h3.5A10,10,0,0,1,15.71,21.28Z"/></g></g></svg>