<svg xmlns="http://www.w3.org/2000/svg" viewBox="0 0 24 24"><defs><style>.cls-1{fill:#333;}</style></defs><title>share</title><g id="Layer_2" data-name="Layer 2"><g id="Layer_1-2" data-name="Layer 1"><path class="cls-1" d="M5,9a3,3,0,1,1-3,3A3,3,0,0,1,5,9ZM5,7a5,5,0,1,0,5,5A5,5,0,0,0,5,7Zm15,9a4,4,0,0,0-2.93,1.3l-5.49-2.93a6.94,6.94,0,0,1-.94,1.76l5.49,2.93A4,4,0,1,0,20,16Zm0,6a2,2,0,1,1,2-2A2,2,0,0,1,20,22ZM20,0a4,4,0,0,0-4,4,4,4,0,0,0,.12.93L10.63,7.86a7,7,0,0,1,.94,1.76L17.07,6.7A4,4,0,1,0,20,0Zm0,6a2,2,0,1,1,2-2A2,2,0,0,1,20,6Z"/></g></g></svg>